<?xml version="1.0" encoding="utf-8"?>
<!-- Generator: Adobe Illustrator 21.0.1, SVG Export Plug-In . SVG Version: 6.00 Build 0)  -->
<svg version="1.1" id="Layer_1" xmlns="http://www.w3.org/2000/svg" xmlns:xlink="http://www.w3.org/1999/xlink" x="0px" y="0px"
	 viewBox="0 0 74.9 50" style="enable-background:new 0 0 74.9 50;" xml:space="preserve">
<style type="text/css">
	.st0{fill:#28377B;}
	.st1{fill:#9D9FA2;}
	.st2{fill:#D1DA30;}
	.st3{fill:#73BA44;}
	.st4{fill:#27B7BD;}
	.st5{fill:#59B65E;}
	.st6{fill:#3189C9;}
	.st7{fill:#213A71;}
	.st8{fill:#C1C1C1;}
	.st9{fill:#FFFFFF;}
</style>
<g id="Group_423" transform="translate(3261 3313)">
	<path id="Path_1593" class="st0" d="M-3235.9-3298.2l0.9,0.9l0.9-0.9l-1-0.9L-3235.9-3298.2z"/>
	<path id="Path_1594" class="st1" d="M-3232.8-3298.2l0.9,0.9l0.9-0.9l-1-0.9L-3232.8-3298.2z"/>
	<path id="Path_1595" class="st2" d="M-3234.1-3297l0.8,0.7l0.7-0.8l-0.7-0.7L-3234.1-3297z"/>
	<path id="Path_1596" class="st3" d="M-3231.4-3296.6l0.8,0.7l0.7-0.7l-0.7-0.7L-3231.4-3296.6z"/>
	
		<rect id="Rectangle_510" x="-3235.1" y="-3296.4" transform="matrix(0.6914 -0.7224 0.7224 0.6914 1382.9635 -3353.781)" class="st2" width="1" height="1"/>
	
		<rect id="Rectangle_511" x="-3232.6" y="-3296.3" transform="matrix(0.6919 -0.7219 0.7219 0.6919 1383.6982 -3348.6719)" class="st4" width="1" height="1"/>
	
		<rect id="Rectangle_512" x="-3233.7" y="-3295.3" transform="matrix(0.6919 -0.7219 0.7219 0.6919 1382.7142 -3349.2588)" class="st3" width="0.7" height="0.7"/>
	<path id="Path_1597" class="st5" d="M-3231.8-3294.5l0.5,0.5l0.5-0.6l-0.6-0.5L-3231.8-3294.5z"/>
	
		<rect id="Rectangle_513" x="-3227.3" y="-3298.6" transform="matrix(0.9836 -0.1804 0.1804 0.9836 541.9847 -636.1617)" class="st6" width="1.7" height="1.7"/>
	
		<rect id="Rectangle_514" x="-3229.5" y="-3298" transform="matrix(0.9837 -0.18 0.18 0.9837 540.7388 -634.994)" class="st7" width="1.3" height="1.3"/>
	
		<rect id="Rectangle_515" x="-3227" y="-3296.1" transform="matrix(0.9836 -0.1803 0.1803 0.9836 541.2833 -635.6904)" class="st4" width="1.3" height="1.3"/>
	
		<rect id="Rectangle_516" x="-3228.8" y="-3295.9" transform="matrix(0.9836 -0.1804 0.1804 0.9836 541.5168 -636.4446)" class="st2" width="1" height="1"/>
	
		<rect id="Rectangle_517" x="-3226.8" y="-3294" transform="matrix(0.9836 -0.1804 0.1804 0.9836 541.1998 -636.0562)" class="st1" width="1" height="1"/>
	
		<rect id="Rectangle_518" x="-3230.3" y="-3295.5" transform="matrix(0.9836 -0.1804 0.1804 0.9836 541.4138 -636.7162)" class="st4" width="1" height="1"/>
	
		<rect id="Rectangle_519" x="-3228.5" y="-3294.1" transform="matrix(0.9836 -0.1804 0.1804 0.9836 541.2052 -636.3535)" class="st3" width="1" height="1"/>
	
		<rect id="Rectangle_520" x="-3229.8" y="-3294" transform="matrix(0.9836 -0.1806 0.1806 0.9836 541.687 -637.3438)" class="st1" width="0.7" height="0.7"/>
	
		<rect id="Rectangle_521" x="-3228.4" y="-3292.5" transform="matrix(0.9837 -0.18 0.18 0.9837 539.8228 -634.7701)" class="st5" width="0.7" height="0.7"/>
	
		<rect id="Rectangle_522" x="-3223" y="-3292.8" transform="matrix(0.4287 -0.9034 0.9034 0.4287 1133.3459 -4791.729)" class="st0" width="1.7" height="1.7"/>
	<path id="Path_1598" class="st4" d="M-3225.3-3292.6l1.2,0.6l0.6-1.2l-1.2-0.6L-3225.3-3292.6z"/>
	<path id="Path_1599" class="st3" d="M-3224.3-3289.7l1.2,0.6l0.6-1.2l-1.2-0.6L-3224.3-3289.7z"/>
	<path id="Path_1600" class="st2" d="M-3225.8-3290.8l0.9,0.4l0.5-0.9l-0.9-0.5L-3225.8-3290.8z"/>
	<path id="Path_1601" class="st2" d="M-3225.3-3288.1l0.9,0.4l0.5-0.9l-0.9-0.4L-3225.3-3288.1z"/>
	<path id="Path_1602" class="st6" d="M-3227.3-3291.4l0.9,0.4l0.4-0.9l-0.9-0.5L-3227.3-3291.4z"/>
	<path id="Path_1603" class="st1" d="M-3226.5-3289.2l0.9,0.4l0.5-0.9l-0.9-0.4L-3226.5-3289.2z"/>
	
		<rect id="Rectangle_523" x="-3227.4" y="-3290.7" transform="matrix(0.4301 -0.9028 0.9028 0.4301 1131.311 -4788.542)" class="st3" width="0.7" height="0.7"/>
	<g id="Group_408" transform="translate(33.717 24.212)">
		
			<rect id="Rectangle_524" x="-3260.9" y="-3312.9" transform="matrix(0.4299 -0.9029 0.9029 0.4299 1132.0283 -4832.1406)" class="st4" width="0.7" height="0.7"/>
		<path id="Path_1604" class="st6" d="M-3256.2-3307.9l1.5-0.8l-0.8-1.5l-1.5,0.8L-3256.2-3307.9z"/>
	</g>
	<path id="Path_1605" class="st4" d="M-3224.3-3287.1l0.6,1.2l1.2-0.6l-0.6-1.2L-3224.3-3287.1z"/>
	<path id="Path_1606" class="st4" d="M-3225.2-3284.1l0.6,1.2l1.2-0.6l-0.6-1.2L-3225.2-3284.1z"/>
	<path id="Path_1607" class="st0" d="M-3225.7-3285.9l0.5,0.9l0.9-0.5l-0.5-0.9L-3225.7-3285.9z"/>
	<path id="Path_1608" class="st5" d="M-3226.9-3283.4l0.5,0.9l0.9-0.5l-0.5-0.9L-3226.9-3283.4z"/>
	<path id="Path_1609" class="st7" d="M-3226.6-3287.2l0.5,0.9l0.9-0.5l-0.5-0.9L-3226.6-3287.2z"/>
	<path id="Path_1610" class="st2" d="M-3227.3-3285.1l0.5,0.9l0.9-0.5l-0.5-0.9L-3227.3-3285.1z"/>
	
		<rect id="Rectangle_525" x="-3227.4" y="-3286.6" transform="matrix(0.8771 -0.4804 0.4804 0.8771 1181.903 -1954.1989)" class="st1" width="0.7" height="0.7"/>
	
		<rect id="Rectangle_526" x="-3228.4" y="-3284.8" transform="matrix(0.8771 -0.4804 0.4804 0.8771 1180.9441 -1954.4437)" class="st4" width="0.7" height="0.7"/>
	
		<rect id="Rectangle_527" x="-3227.1" y="-3279.7" transform="matrix(0.1229 -0.9924 0.9924 0.1229 424.3554 -6077.6108)" class="st3" width="1.7" height="1.7"/>
	
		<rect id="Rectangle_528" x="-3226.8" y="-3281.9" transform="matrix(0.123 -0.9924 0.9924 0.123 427.1998 -6079.1182)" class="st7" width="1.3" height="1.3"/>
	
		<rect id="Rectangle_529" x="-3229.3" y="-3280.1" transform="matrix(0.1234 -0.9924 0.9924 0.1234 424.1437 -6078.6885)" class="st4" width="1.3" height="1.3"/>
	
		<rect id="Rectangle_530" x="-3228.6" y="-3281.8" transform="matrix(0.1229 -0.9924 0.9924 0.1229 425.1536 -6081.5366)" class="st3" width="1" height="1"/>
	
		<rect id="Rectangle_531" x="-3231.1" y="-3280.5" transform="matrix(0.1229 -0.9924 0.9924 0.1229 421.6802 -6082.8486)" class="st1" width="1" height="1"/>
	
		<rect id="Rectangle_532" x="-3228.5" y="-3283.4" transform="matrix(0.123 -0.9924 0.9924 0.123 426.9956 -6082.6445)" class="st1" width="1" height="1"/>
	
		<rect id="Rectangle_533" x="-3230.4" y="-3282" transform="matrix(0.1233 -0.9924 0.9924 0.1233 424.8482 -6082.1626)" class="st3" width="1" height="1"/>
	
		<rect id="Rectangle_534" x="-3229.8" y="-3283.3" transform="matrix(0.1227 -0.9924 0.9924 0.1227 424.9695 -6085.1655)" class="st1" width="0.7" height="0.7"/>
	
		<rect id="Rectangle_535" x="-3231.6" y="-3282.4" transform="matrix(0.1227 -0.9924 0.9924 0.1227 422.5004 -6086.1851)" class="st1" width="0.7" height="0.7"/>
	<path id="Path_1611" class="st3" d="M-3234.3-3276.5l1.2,1.1l1.1-1.2l-1.2-1.1L-3234.3-3276.5z"/>
	<path id="Path_1612" class="st3" d="M-3234.5-3299.8l1.2,1.1l1.1-1.2l-1.2-1.1L-3234.5-3299.8z"/>
	<path id="Path_1613" class="st4" d="M-3232.5-3278.3l0.9,0.9l0.9-0.9l-1-0.9L-3232.5-3278.3z"/>
	<path id="Path_1614" class="st3" d="M-3235.6-3278.3l0.9,0.9l0.9-0.9l-1-0.9L-3235.6-3278.3z"/>
	<path id="Path_1615" class="st6" d="M-3233.9-3279.6l0.7,0.7l0.7-0.8l-0.8-0.7L-3233.9-3279.6z"/>
	
		<rect id="Rectangle_536" x="-3236.4" y="-3280.4" transform="matrix(0.6801 -0.7331 0.7331 0.6801 1369.4041 -3421.5383)" class="st2" width="1" height="1"/>
	<path id="Path_1616" class="st2" d="M-3232.9-3280.8l0.8,0.7l0.7-0.8l-0.8-0.7L-3232.9-3280.8z"/>
	<path id="Path_1617" class="st1" d="M-3235.2-3280.8l0.8,0.7l0.7-0.7l-0.8-0.7L-3235.2-3280.8z"/>
	
		<rect id="Rectangle_537" x="-3233.7" y="-3282" transform="matrix(0.6801 -0.7331 0.7331 0.6801 1371.5222 -3420.1599)" class="st7" width="0.7" height="0.7"/>
	
		<rect id="Rectangle_538" x="-3235.6" y="-3282.4" transform="matrix(0.6796 -0.7336 0.7336 0.6796 1371.0681 -3424.8547)" class="st1" width="0.7" height="0.7"/>
	
		<rect id="Rectangle_539" x="-3240.9" y="-3279.5" transform="matrix(0.9805 -0.1963 0.1963 0.9805 580.5703 -699.8314)" class="st6" width="1.7" height="1.7"/>
	
		<rect id="Rectangle_540" x="-3238.4" y="-3279.9" transform="matrix(0.9806 -0.1961 0.1961 0.9806 580.235 -698.6503)" class="st4" width="1.3" height="1.3"/>
	
		<rect id="Rectangle_541" x="-3241" y="-3281.7" transform="matrix(0.9805 -0.1966 0.1966 0.9805 581.7947 -701.061)" class="st3" width="1.3" height="1.3"/>
	
		<rect id="Rectangle_542" x="-3238.8" y="-3281.6" transform="matrix(0.9805 -0.1965 0.1965 0.9805 581.5851 -700.2706)" class="st2" width="1" height="1"/>
	
		<rect id="Rectangle_543" x="-3237.3" y="-3282" transform="matrix(0.9805 -0.1965 0.1965 0.9805 581.7006 -699.9745)" class="st0" width="1" height="1"/>
	
		<rect id="Rectangle_544" x="-3239.2" y="-3283.4" transform="matrix(0.9805 -0.1965 0.1965 0.9805 581.9251 -700.373)" class="st6" width="1" height="1"/>
	
		<rect id="Rectangle_545" x="-3237.5" y="-3283.3" transform="matrix(0.9806 -0.1958 0.1958 0.9806 580.1544 -697.4162)" class="st3" width="0.7" height="0.7"/>
	
		<rect id="Rectangle_546" x="-3238.9" y="-3284.7" transform="matrix(0.9806 -0.1961 0.1961 0.9806 581.2221 -698.9175)" class="st1" width="0.7" height="0.7"/>
	
		<rect id="Rectangle_547" x="-3245.3" y="-3285.2" transform="matrix(0.4141 -0.9102 0.9102 0.4141 1088.6185 -4877.4497)" class="st4" width="1.7" height="1.7"/>
	<path id="Path_1618" class="st2" d="M-3243.1-3283.2l1.2,0.6l0.6-1.2l-1.2-0.6L-3243.1-3283.2z"/>
	<path id="Path_1619" class="st6" d="M-3244.1-3286.1l1.2,0.6l0.6-1.2l-1.2-0.5L-3244.1-3286.1z"/>
	
		<rect id="Rectangle_548" x="-3242.1" y="-3285.9" transform="matrix(0.4146 -0.91 0.91 0.4146 1092.0623 -4873.0938)" class="st4" width="1" height="1"/>
	
		<rect id="Rectangle_549" x="-3242.6" y="-3288.6" transform="matrix(0.4149 -0.9099 0.9099 0.4149 1094.8297 -4873.5977)" class="st0" width="1" height="1"/>
	
		<rect id="Rectangle_550" x="-3241.4" y="-3287.5" transform="matrix(0.4154 -0.9096 0.9096 0.4154 1095.3737 -4869.5225)" class="st2" width="1" height="1"/>
	<path id="Path_1620" class="st4" d="M-3245.8-3291.9l0.8,1.5l1.5-0.8l-0.8-1.5L-3245.8-3291.9z"/>
	<g id="Group_409" transform="translate(16.767 19.089)">
		<path id="Path_1621" class="st1" d="M-3257.7-3301.8l0.9,0.4l0.4-0.9l-0.9-0.4L-3257.7-3301.8z"/>
		
			<rect id="Rectangle_551" x="-3257.4" y="-3304.4" transform="matrix(0.4153 -0.9097 0.9097 0.4153 1101.2391 -4894.5259)" class="st5" width="1" height="1"/>
		
			<rect id="Rectangle_552" x="-3256.8" y="-3305.6" transform="matrix(0.4157 -0.9095 0.9095 0.4157 1103.3842 -4892.9697)" class="st7" width="0.7" height="0.7"/>
		<path id="Path_1622" class="st7" d="M-3260.1-3311.9l0.7,1.2l1.2-0.7l-0.7-1.2L-3260.1-3311.9z"/>
		<path id="Path_1623" class="st3" d="M-3258-3312.5l0.5,0.9l0.9-0.5l-0.5-0.9L-3258-3312.5z"/>
		
			<rect id="Rectangle_553" x="-3257" y="-3307.6" transform="matrix(0.4155 -0.9096 0.9096 0.4155 1104.7003 -4895.2788)" class="st3" width="0.7" height="0.7"/>
		<path id="Path_1624" class="st3" d="M-3260.4-3307.7l1.2-0.7l-0.6-1.2l-1.2,0.7L-3260.4-3307.7z"/>
		<path id="Path_1625" class="st6" d="M-3259.2-3310l0.5,0.9l0.9-0.5l-0.5-0.9L-3259.2-3310z"/>
		<path id="Path_1626" class="st4" d="M-3257.4-3309.2l-0.9,0.5l0.5,0.9l0.9-0.5L-3257.4-3309.2z"/>
		<path id="Path_1627" class="st2" d="M-3257.6-3310.9l0.5,0.9l0.9-0.5l-0.5-0.9L-3257.6-3310.9z"/>
		
			<rect id="Rectangle_554" x="-3256.8" y="-3309.6" transform="matrix(0.8688 -0.4951 0.4951 0.8688 1211.3059 -2046.384)" class="st1" width="0.7" height="0.7"/>
	</g>
	<g id="Group_410" transform="translate(19.495 14.529)">
		
			<rect id="Rectangle_555" x="-3258.6" y="-3306.9" transform="matrix(0.8689 -0.495 0.495 0.8689 1209.4797 -2046.105)" class="st3" width="0.7" height="0.7"/>
		
			<rect id="Rectangle_556" x="-3260.9" y="-3312.9" transform="matrix(0.106 -0.9944 0.9944 0.106 379.0206 -6202.5669)" class="st3" width="1.7" height="1.7"/>
		
			<rect id="Rectangle_557" x="-3260.9" y="-3310.4" transform="matrix(0.1064 -0.9943 0.9943 0.1064 377.6062 -6199.208)" class="st1" width="1.3" height="1.3"/>
	</g>
	<g id="Group_411" transform="translate(21.693 15.22)">
		
			<rect id="Rectangle_558" x="-3260.6" y="-3312.9" transform="matrix(0.1064 -0.9943 0.9943 0.1064 380.3992 -6201.2559)" class="st4" width="1.3" height="1.3"/>
		
			<rect id="Rectangle_559" x="-3260.9" y="-3310.9" transform="matrix(0.1064 -0.9943 0.9943 0.1064 378.0402 -6200.0376)" class="st2" width="1" height="1"/>
	</g>
	
		<rect id="Rectangle_560" x="-3236.8" y="-3297" transform="matrix(0.106 -0.9944 0.9944 0.106 384.8032 -6164.9819)" class="st6" width="1" height="1"/>
	
		<rect id="Rectangle_561" x="-3239.3" y="-3294" transform="matrix(0.1064 -0.9943 0.9943 0.1064 380.6761 -6163.4766)" class="st4" width="1" height="1"/>
	
		<rect id="Rectangle_562" x="-3237.4" y="-3295.5" transform="matrix(0.1066 -0.9943 0.9943 0.1066 384.2975 -6162.23)" class="st3" width="1" height="1"/>
	
		<rect id="Rectangle_563" x="-3237.7" y="-3293.9" transform="matrix(0.106 -0.9944 0.9944 0.106 380.8522 -6163.4033)" class="st7" width="0.7" height="0.7"/>
	
		<rect id="Rectangle_564" x="-3235.9" y="-3294.8" transform="matrix(0.1057 -0.9944 0.9944 0.1057 382.409 -6163.6836)" class="st1" width="0.7" height="0.7"/>
	<path id="Path_1628" class="st8" d="M-3228.8-3287.5c-0.6-0.2-1.2-0.2-1.8-0.1c-0.3,0-0.5,0.1-0.8,0.2c0,0,0,0-0.1,0
		c-0.1,0.1-0.3,0.1-0.4,0.2c-0.1,0-0.2,0.1-0.3,0.2c-0.3,0.2-0.5,0.4-0.8,0.6c-0.2-1.4-0.2-2.8-0.1-4.2l0,0c0.6,0.4,0.5,1.5,0.3,1.8
		l0,0c0.5-0.6,0.6-1.5,0.3-2.2l0,0c0.1,0.1,0.2,0.2,0.3,0.3c0.2,0.3,0.3,0.6,0.3,0.9v0.5l0,0c0.3-0.5,0.3-1.1,0-1.6
		c-0.1-0.2-0.2-0.3-0.3-0.5l-0.1-0.1l0,0c0,0,0.1,0,0.1,0c0.1,0,0.2,0.1,0.3,0.2c0.2,0.2,0.4,0.4,0.5,0.7c0.1,0.2,0.1,0.4,0.1,0.6
		l0,0c0.1-0.4,0.1-0.9-0.1-1.2c-0.1-0.2-0.3-0.4-0.5-0.5c-0.1-0.1-0.2-0.1-0.3-0.2c0,0-0.1,0-0.2,0h0.2c0.1,0,0.2,0,0.3,0
		c0.2,0,0.4,0.1,0.5,0.2c0.1,0.1,0.3,0.2,0.3,0.3l0,0c0-0.3-0.2-0.5-0.3-0.7c-0.1-0.1-0.3-0.2-0.5-0.3c-0.1,0-0.2,0-0.3,0
		c-0.1,0-0.3,0-0.4,0.1l0,0c0.1-0.1,0.3-0.3,0.4-0.3c0.1,0,0.2,0,0.3,0c0.1,0,0.2,0,0.3,0.1l0,0c-0.1-0.1-0.2-0.2-0.3-0.3
		c-0.1,0-0.2-0.1-0.3-0.1c-0.3,0-0.7,0.1-0.9,0.4l0,0l-0.1-0.3c-0.1-0.2-0.2-0.4-0.2-0.6l0,0c-0.1,0.2-0.1,0.4-0.2,0.6l-0.1,0.3l0,0
		c-0.3-0.4-0.8-0.6-1.3-0.3c-0.1,0.1-0.2,0.1-0.2,0.2l0,0c0.4-0.2,0.8,0,1.1,0.3l0,0c-0.5-0.2-1.1,0-1.4,0.3
		c-0.1,0.2-0.2,0.4-0.2,0.6l0,0c0.1-0.1,0.1-0.2,0.2-0.3c0.3-0.2,0.7-0.4,1.1-0.3l0,0c-0.5,0.1-0.9,0.4-1.1,0.9
		c-0.1,0.3-0.1,0.7,0,1l0,0v0c0-0.7,0.4-1.3,1.1-1.5l0,0c-0.7,0.6-0.9,1.5-0.5,2.3l0,0c-0.1-0.7,0.1-1.3,0.6-1.8l0,0
		c-0.4,0.7-0.3,1.6,0.3,2.2l0,0c-0.1-0.3-0.3-1.4,0.3-1.8l0,0c0.2,1.4,0.1,2.8-0.1,4.2c-0.5-0.4-1-0.7-1.5-0.9c-0.1,0-0.1,0-0.2-0.1
		c-0.5-0.1-1-0.2-1.5-0.2c-0.5,0-1,0.2-1.5,0.4c-0.1,0-0.1,0-0.2,0v0c0,0,0.1,0,0.1,0c0.5-0.1,1-0.2,1.5-0.1c0.5,0,1,0.2,1.5,0.4
		c0.6,0.3,1.2,0.7,1.8,1.2c-0.6,0.5-1.1,1-1.8,1.5l0,0c-0.1-0.1-0.3-0.2-0.4-0.2c-0.1,0-0.3,0.2-0.3,0.3c0,0.1,0,0.3,0.1,0.3
		c0.2,0.2,0.5,0.2,0.7,0.1c0.7-0.5,1.4-1,1.9-1.6c0.1,0,0.1-0.1,0.2-0.2c0.1,0,0.1,0.1,0.2,0.2c0.3,0.3,0.7,0.6,1,0.9
		c0.1,0.1,0.3,0.2,0.3,0.3c0.2,0.1,0.3,0.2,0.5,0.3c0.2,0.2,0.5,0.2,0.8,0c0,0,0,0,0,0c0,0,0,0,0,0c0.1-0.1,0.1-0.2,0.1-0.3
		c0-0.1,0-0.1-0.1-0.2c0,0-0.1-0.1-0.2-0.1c-0.2,0-0.3,0-0.4,0.2c0,0-0.1,0-0.2-0.1c-0.1-0.1-0.3-0.2-0.5-0.4
		c-0.1-0.1-0.2-0.2-0.3-0.3c-0.3-0.2-0.5-0.5-0.8-0.7c0.2-0.2,0.5-0.4,0.8-0.6c0.1-0.1,0.2-0.2,0.3-0.2l0.5-0.3
		c0.3-0.1,0.5-0.2,0.8-0.3c0.6-0.2,1.2-0.2,1.8-0.1c0.2,0,0.4,0.1,0.6,0.2c0,0,0,0,0,0C-3228.3-3287.3-3228.5-3287.4-3228.8-3287.5z
		"/>
	<g id="Group_412" transform="translate(0.387 39.08)">
		<path id="Path_1629" class="st9" d="M-3195.3-3309c0.1,0.1,0.2,0.2,0.4,0.3c0.1,0.1,0.3,0.1,0.5,0.1c0.2,0,0.3,0,0.5-0.1
			c0.2,0,0.3-0.1,0.4-0.3c0.2-0.2,0.4-0.6,0.3-0.9c0-0.2,0-0.3-0.1-0.5c0-0.1-0.1-0.3-0.3-0.4c-0.1-0.1-0.2-0.2-0.4-0.3
			c-0.2-0.1-0.3-0.1-0.5-0.1c-0.2,0-0.3,0-0.5,0.1l-0.4,0.3c-0.1,0.1-0.2,0.2-0.3,0.4c0,0.2-0.1,0.3-0.1,0.5c0,0.2,0,0.3,0.1,0.5
			C-3195.5-3309.3-3195.4-3309.1-3195.3-3309z"/>
		<path id="Path_1629_1_" class="st8" d="M-3200-3309c0.1,0.1,0.2,0.2,0.4,0.3c0.1,0.1,0.3,0.1,0.5,0.1c0.2,0,0.3,0,0.5-0.1
			c0.2,0,0.3-0.1,0.4-0.3c0.2-0.2,0.4-0.6,0.3-0.9c0-0.2,0-0.3-0.1-0.5c0-0.1-0.1-0.3-0.3-0.4c-0.1-0.1-0.2-0.2-0.4-0.3
			c-0.2-0.1-0.3-0.1-0.5-0.1c-0.2,0-0.3,0-0.5,0.1l-0.4,0.3c-0.1,0.1-0.2,0.2-0.3,0.4c0,0.2-0.1,0.3-0.1,0.5c0,0.2,0,0.3,0.1,0.5
			C-3200.2-3309.3-3200.1-3309.1-3200-3309z"/>
		<path id="Path_1630" class="st9" d="M-3260.4-3310.8c-0.1,0.1-0.1,0.3-0.1,0.5c0,0.2,0,0.3,0.1,0.5c0.1,0.1,0.2,0.2,0.3,0.3
			c0.1,0.1,0.3,0.2,0.4,0.2c0.2,0,0.3,0.1,0.5,0.1h0.5v-2.3h-0.4c-0.2,0-0.3,0-0.5,0.1c-0.2,0-0.3,0.1-0.4,0.2
			C-3260.3-3311.1-3260.4-3310.9-3260.4-3310.8z"/>
		<path id="Path_1631" class="st9" d="M-3219-3309.2l0.7-1.8c-0.3-0.3-0.8-0.4-1.2-0.4c-0.2,0-0.4,0-0.6,0.1
			c-0.2,0.1-0.4,0.2-0.6,0.3l0.7,1.8H-3219z"/>
		<path id="Path_1632" class="st9" d="M-3200-3309c0.1,0.1,0.2,0.2,0.4,0.3c0.1,0.1,0.3,0.1,0.5,0.1c0.2,0,0.3,0,0.5-0.1
			c0.2,0,0.3-0.1,0.4-0.3c0.2-0.2,0.4-0.6,0.3-0.9c0-0.2,0-0.3-0.1-0.5c0-0.1-0.1-0.3-0.3-0.4c-0.1-0.1-0.2-0.2-0.4-0.3
			c-0.2-0.1-0.3-0.1-0.5-0.1c-0.2,0-0.3,0-0.5,0.1l-0.4,0.3c-0.1,0.1-0.2,0.2-0.3,0.4c0,0.2-0.1,0.3-0.1,0.5c0,0.2,0,0.3,0.1,0.5
			C-3200.2-3309.3-3200.1-3309.1-3200-3309z"/>
		<path id="Path_1633" class="st9" d="M-3230.9-3310.8c-0.1,0.1-0.1,0.3-0.1,0.5c0,0.2,0,0.3,0.1,0.5c0.1,0.1,0.2,0.2,0.3,0.3
			c0.1,0.1,0.3,0.2,0.4,0.2c0.2,0,0.3,0.1,0.5,0.1h0.5v-2.3h-0.5c-0.2,0-0.3,0-0.5,0.1c-0.2,0-0.3,0.1-0.4,0.2
			C-3230.8-3311-3230.8-3310.9-3230.9-3310.8z"/>
		<path id="Path_1634" class="st9" d="M-3250.5-3311.4c-0.2,0-0.3,0.1-0.4,0.2c-0.1,0.1-0.2,0.2-0.3,0.4c-0.1,0.1-0.1,0.3-0.1,0.5
			c0,0.2,0,0.3,0.1,0.5c0.1,0.1,0.2,0.3,0.3,0.3c0.1,0.1,0.3,0.2,0.4,0.2c0.2,0,0.3,0.1,0.5,0.1h0.5v-2.3h-0.5
			C-3250.2-3311.4-3250.3-3311.4-3250.5-3311.4z"/>
		<path id="Path_1635" class="st9" d="M-3246-3309.2l0.7-1.8c-0.3-0.3-0.8-0.4-1.2-0.4c-0.2,0-0.4,0-0.6,0.1
			c-0.2,0.1-0.4,0.2-0.6,0.3l0.7,1.8H-3246z"/>
		<path id="Path_1636" class="st9" d="M-3211.2-3310.8c-0.1,0.1-0.1,0.3-0.1,0.5c0,0.2,0,0.3,0.1,0.5c0.1,0.1,0.2,0.2,0.3,0.3
			c0.1,0.1,0.3,0.2,0.4,0.2c0.2,0,0.3,0.1,0.5,0.1h0.5v-2.3h-0.5c-0.2,0-0.3,0-0.5,0.1c-0.2,0-0.3,0.1-0.4,0.2
			C-3211.1-3311-3211.1-3310.9-3211.2-3310.8z"/>
		<rect id="Rectangle_565" x="-3230.1" y="-3313" class="st8" width="0.5" height="0.5"/>
		<rect id="Rectangle_566" x="-3227.2" y="-3308.1" class="st8" width="0.5" height="0.5"/>
		<path id="Path_1637" class="st8" d="M-3260.5-3311.5c-0.2,0.1-0.3,0.3-0.4,0.5c-0.1,0.2-0.1,0.4-0.1,0.6c0,0.3,0,0.5,0.2,0.7
			c0.1,0.2,0.2,0.4,0.4,0.5c0.2,0.1,0.4,0.2,0.6,0.3c0.3,0.1,0.5,0.1,0.8,0.1h3.1v-3.2h-0.5v2.8h-2v-2.8h-0.8c-0.3,0-0.6,0-0.8,0.1
			C-3260.1-3311.7-3260.3-3311.6-3260.5-3311.5z M-3259.2-3311.5h0.5v2.3h-0.5c-0.2,0-0.3,0-0.5-0.1c-0.2,0-0.3-0.1-0.4-0.2
			c-0.1-0.1-0.2-0.2-0.3-0.3c-0.1-0.1-0.1-0.3-0.1-0.5c0-0.2,0-0.3,0.1-0.5c0.1-0.1,0.2-0.3,0.3-0.3c0.1-0.1,0.3-0.2,0.4-0.2
			C-3259.6-3311.5-3259.4-3311.5-3259.2-3311.5z"/>
		<rect id="Rectangle_567" x="-3224.6" y="-3308.1" class="st8" width="0.5" height="0.5"/>
		<rect id="Rectangle_568" x="-3226.3" y="-3308.1" class="st8" width="0.5" height="0.5"/>
		<rect id="Rectangle_569" x="-3214.7" y="-3313" class="st8" width="0.5" height="4.3"/>
		<path id="Path_1638" class="st8" d="M-3211.3-3311.5c-0.2,0.1-0.3,0.3-0.4,0.5c-0.1,0.2-0.1,0.4-0.1,0.6c0,0.3,0,0.5,0.2,0.7
			c0.1,0.2,0.2,0.4,0.4,0.5c0.2,0.1,0.4,0.2,0.6,0.3c0.3,0.1,0.5,0.1,0.8,0.1h9.4c0.2,0.2,0.3,0.3,0.6,0.4c0.2,0.1,0.5,0.1,0.7,0.1
			c0.2,0,0.5,0,0.7-0.1c0.2-0.1,0.4-0.2,0.6-0.4h2.1c0.2,0.2,0.3,0.3,0.6,0.4c0.2,0.1,0.5,0.1,0.7,0.1c0.2,0,0.5,0,0.7-0.1
			c0.2-0.1,0.4-0.2,0.6-0.4h2.5v-4.3h-0.5v3.8h-1.6c0.1-0.2,0.1-0.5,0.1-0.7c0-0.2,0-0.5-0.1-0.7c-0.1-0.2-0.2-0.4-0.4-0.6
			c-0.2-0.2-0.4-0.3-0.6-0.4c-0.4-0.2-0.9-0.2-1.4,0c-0.2,0.1-0.4,0.2-0.6,0.4c-0.2,0.2-0.3,0.3-0.3,0.6c-0.1,0.2-0.1,0.5-0.1,0.7
			c0,0.1,0,0.3,0,0.4c0,0.1,0,0.2,0.1,0.3h-1.5c0.1-0.2,0.1-0.5,0.1-0.7c0-0.2,0-0.5-0.1-0.7c-0.1-0.2-0.2-0.4-0.4-0.6
			c-0.2-0.2-0.4-0.3-0.6-0.4c-0.4-0.2-0.9-0.2-1.4,0c-0.2,0.1-0.4,0.2-0.6,0.4c-0.2,0.2-0.3,0.3-0.3,0.6c-0.1,0.2-0.1,0.5-0.1,0.7
			c0,0.1,0,0.3,0,0.4c0,0.1,0,0.2,0.1,0.3h-1.5v-3.8h-0.5v3.8h-1.5v-0.7c0-0.2,0-0.3-0.1-0.5c0-0.2-0.1-0.3-0.2-0.4
			c-0.1-0.1-0.3-0.2-0.4-0.3c-0.2-0.1-0.4-0.1-0.6-0.1h-2.1l0.9-1.7h-0.5l-0.9,1.7c0,0.1,0,0.2,0.1,0.3c0,0.1,0.1,0.1,0.1,0.2h2.5
			c0.1,0,0.3,0,0.4,0.1c0.1,0,0.2,0.1,0.3,0.2c0.1,0.1,0.1,0.2,0.1,0.3c0,0.1,0.1,0.2,0,0.3v0.7h-4.4v-2.8h-0.8
			c-0.3,0-0.6,0-0.8,0.1C-3210.9-3311.7-3211.1-3311.7-3211.3-3311.5z M-3195.6-3310.4c0.1-0.3,0.4-0.5,0.6-0.6
			c0.1-0.1,0.3-0.1,0.5-0.1c0.2,0,0.3,0,0.5,0.1c0.1,0,0.3,0.1,0.4,0.3c0.1,0.1,0.2,0.2,0.3,0.4c0.1,0.2,0.1,0.3,0.1,0.5
			c0,0.2,0,0.3-0.1,0.5c-0.1,0.1-0.2,0.3-0.3,0.4c-0.1,0.1-0.2,0.2-0.4,0.3c-0.2,0.1-0.3,0.1-0.5,0.1c-0.2,0-0.3,0-0.5-0.1l-0.4-0.3
			c-0.1-0.1-0.2-0.2-0.3-0.4c0-0.2-0.1-0.3-0.1-0.5C-3195.7-3310-3195.7-3310.2-3195.6-3310.4L-3195.6-3310.4z M-3200.2-3310.4
			c0.1-0.3,0.4-0.5,0.6-0.6c0.1-0.1,0.3-0.1,0.5-0.1c0.2,0,0.3,0,0.5,0.1c0.1,0,0.3,0.1,0.4,0.3c0.1,0.1,0.2,0.2,0.3,0.4
			c0.1,0.2,0.1,0.3,0.1,0.5c0,0.2,0,0.3-0.1,0.5c-0.1,0.1-0.2,0.3-0.3,0.4c-0.1,0.1-0.2,0.2-0.4,0.3c-0.2,0.1-0.3,0.1-0.5,0.1
			c-0.2,0-0.3,0-0.5-0.1l-0.4-0.3c-0.1-0.1-0.2-0.2-0.3-0.4c0-0.2-0.1-0.3-0.1-0.5C-3200.3-3310-3200.3-3310.2-3200.2-3310.4
			L-3200.2-3310.4z M-3210-3311.5h0.5v2.3h-0.5c-0.2,0-0.3,0-0.5-0.1c-0.2,0-0.3-0.1-0.4-0.2c-0.1-0.1-0.2-0.2-0.3-0.3
			c-0.1-0.1-0.1-0.3-0.1-0.5c0-0.2,0-0.3,0.1-0.5c0.1-0.1,0.2-0.3,0.3-0.3c0.1-0.1,0.3-0.2,0.4-0.2
			C-3210.4-3311.5-3210.2-3311.5-3210-3311.5L-3210-3311.5z"/>
		<rect id="Rectangle_570" x="-3189.3" y="-3313" class="st8" width="0.5" height="4.3"/>
		<rect id="Rectangle_571" x="-3209.6" y="-3313" class="st8" width="0.5" height="0.5"/>
		<rect id="Rectangle_572" x="-3210.4" y="-3313" class="st8" width="0.5" height="0.5"/>
		<path id="Path_1639" class="st8" d="M-3222.7-3311.9v3.7c0,0.1,0,0.2-0.1,0.2l-0.1,0.1c-0.1,0-0.1,0.1-0.2,0h-0.1c0,0-0.1,0-0.1,0
			l-0.1,0.5c0.1,0,0.3,0.1,0.4,0c0.1,0,0.3,0,0.4-0.1c0.1,0,0.2-0.1,0.3-0.3c0.1-0.1,0.2-0.2,0.2-0.4c0-0.2,0.1-0.3,0-0.5v-0.1h6.1
			v-4.3h-0.5v3.8h-2l0.8-2c-0.1-0.1-0.2-0.2-0.4-0.3c-0.1-0.1-0.3-0.2-0.4-0.3c-0.2-0.1-0.3-0.1-0.5-0.2c-0.3-0.1-0.6-0.1-0.9,0
			c-0.2,0-0.3,0.1-0.5,0.2c-0.1,0.1-0.3,0.2-0.4,0.3c-0.1,0.1-0.3,0.2-0.4,0.3l0.9,2h-1.8v-2.8H-3222.7z M-3220.7-3311
			c0.2-0.1,0.4-0.3,0.6-0.3c0.2-0.1,0.4-0.1,0.6-0.1c0.2,0,0.4,0,0.6,0.1c0.2,0.1,0.4,0.2,0.6,0.3l-0.7,1.8h-0.9L-3220.7-3311z"/>
		<rect id="Rectangle_573" x="-3258.8" y="-3313" class="st8" width="0.5" height="0.5"/>
		<rect id="Rectangle_574" x="-3256.3" y="-3308.1" class="st8" width="0.5" height="0.5"/>
		<rect id="Rectangle_575" x="-3259.6" y="-3313" class="st8" width="0.5" height="0.5"/>
		<rect id="Rectangle_576" x="-3257.2" y="-3308.1" class="st8" width="0.5" height="0.5"/>
		<path id="Path_1640" class="st8" d="M-3255.2-3309.2v0.5h2.7v-1.9c0-0.2,0-0.3-0.1-0.5c0-0.2-0.1-0.3-0.2-0.4
			c-0.1-0.1-0.3-0.2-0.4-0.3c-0.2-0.1-0.4-0.1-0.6-0.1h-0.3v0.5h0.4c0.1,0,0.2,0,0.3,0.1c0.1,0.1,0.2,0.1,0.3,0.2
			c0.1,0.1,0.1,0.2,0.1,0.3c0,0.1,0.1,0.2,0,0.3v1.4L-3255.2-3309.2z"/>
		<path id="Path_1641" class="st8" d="M-3230.9-3311.5c-0.2,0.1-0.3,0.3-0.4,0.5c-0.1,0.2-0.1,0.4-0.1,0.6c0,0.3,0,0.5,0.2,0.7
			c0.1,0.2,0.2,0.4,0.4,0.5c0.2,0.1,0.4,0.2,0.6,0.3c0.3,0.1,0.5,0.1,0.8,0.1h5.4v-3.2h-0.5v2.8h-1.8v-2.8h-0.5v2.8h-1.9v-2.8h-0.8
			c-0.3,0-0.6,0-0.8,0.1C-3230.5-3311.8-3230.7-3311.7-3230.9-3311.5z M-3229.7-3311.5h0.5v2.3h-0.5c-0.2,0-0.3,0-0.5-0.1
			c-0.2,0-0.3-0.1-0.4-0.2c-0.1-0.1-0.2-0.2-0.3-0.3c-0.1-0.1-0.1-0.3-0.1-0.5c0-0.2,0-0.3,0.1-0.5c0.1-0.1,0.2-0.3,0.3-0.3
			c0.1-0.1,0.3-0.2,0.4-0.2C-3230-3311.5-3229.9-3311.5-3229.7-3311.5z"/>
		<rect id="Rectangle_577" x="-3234.3" y="-3313" class="st8" width="0.5" height="4.3"/>
		<rect id="Rectangle_578" x="-3229.3" y="-3313" class="st8" width="0.5" height="0.5"/>
		<path id="Path_1642" class="st8" d="M-3249.8-3311.9c-0.3,0-0.6,0-0.8,0.1c-0.2,0.1-0.4,0.2-0.6,0.3c-0.2,0.1-0.3,0.3-0.4,0.5
			c-0.1,0.2-0.1,0.4-0.1,0.6c0,0.3,0,0.5,0.2,0.7c0.1,0.2,0.2,0.4,0.4,0.5c0.2,0.1,0.4,0.2,0.6,0.3c0.3,0.1,0.5,0.1,0.8,0.1h0.3v0.1
			c0,0.2-0.1,0.4-0.2,0.5c-0.2,0.1-0.4,0.2-0.6,0.2c-0.1,0-0.3,0-0.4,0l-0.4-0.1l-0.1,0.5c0.2,0.1,0.3,0.1,0.5,0.2
			c0.1,0,0.3,0,0.4,0c0.4,0,0.7-0.1,1-0.3c0.2-0.2,0.3-0.6,0.3-0.9v-0.1h7.3c0.2,0,0.4,0,0.6-0.1c0.2-0.1,0.3-0.2,0.4-0.4
			c0.1,0.2,0.3,0.3,0.5,0.4c0.2,0.1,0.5,0.2,0.7,0.2c0.2,0,0.5,0,0.7-0.1c0.2-0.1,0.4-0.3,0.5-0.5c0,0.1,0.1,0.1,0.1,0.2
			c0.1,0.1,0.1,0.1,0.2,0.2c0.1,0.1,0.2,0.1,0.3,0.1c0.1,0,0.2,0.1,0.3,0h1.4v-4.3h-0.5v3.8h-0.8c-0.2,0-0.4,0-0.6-0.1
			c-0.2-0.1-0.3-0.2-0.4-0.3c0-0.1,0.1-0.3,0-0.4v-1.6h-0.5v1.6c0,0.2-0.1,0.5-0.2,0.6c-0.2,0.2-0.4,0.3-0.7,0.3
			c-0.1,0-0.3,0-0.4-0.1c-0.1,0-0.2-0.1-0.3-0.2c-0.1-0.1-0.1-0.2-0.2-0.3c0-0.2,0-0.3,0-0.4v-1.7h-0.5v1.6c0,0.1,0,0.3-0.1,0.4
			c0,0.1-0.1,0.2-0.2,0.3c-0.1,0.1-0.2,0.1-0.3,0.1c-0.1,0-0.2,0-0.3,0h-0.9v-2.5h-0.5v2.4h-2.5l0.8-2c-0.1-0.1-0.2-0.2-0.4-0.3
			c-0.1-0.1-0.3-0.2-0.4-0.3c-0.2-0.1-0.3-0.1-0.5-0.2c-0.3-0.1-0.6-0.1-0.9,0c-0.2,0-0.3,0.1-0.5,0.2c-0.1,0.1-0.3,0.2-0.4,0.3
			c-0.1,0.1-0.3,0.2-0.4,0.3l0.9,2h-1.7v-2.8H-3249.8z M-3249.5-3309.2h-0.5c-0.2,0-0.3,0-0.5-0.1c-0.2,0-0.3-0.1-0.4-0.2
			c-0.1-0.1-0.2-0.2-0.3-0.3c-0.1-0.1-0.1-0.3-0.1-0.5c0-0.2,0-0.3,0.1-0.5c0.1-0.1,0.2-0.3,0.3-0.4c0.1-0.1,0.3-0.2,0.4-0.2
			c0.2,0,0.3-0.1,0.5-0.1h0.5V-3309.2z M-3247.6-3311c0.2-0.1,0.4-0.3,0.6-0.3c0.2-0.1,0.4-0.1,0.6-0.1c0.2,0,0.4,0,0.6,0.1
			c0.2,0.1,0.4,0.2,0.6,0.3l-0.7,1.8h-0.9L-3247.6-3311z"/>
	</g>
	<path id="Path_1643" class="st8" d="M-3257.2-3266.5h-0.7l-1.6,1.7v-1.7h-0.6v3.4h0.6v-1l0.6-0.5l1.2,1.5h0.7l-1.5-1.9
		L-3257.2-3266.5z"/>
	<rect id="Rectangle_579" x="-3256.6" y="-3266.5" class="st8" width="0.6" height="3.4"/>
	<path id="Path_1644" class="st8" d="M-3252.7-3264.1l-1.8-2.4h-0.6v3.4h0.6v-2.4l1.8,2.4h0.5v-3.4h-0.6V-3264.1z"/>
	<path id="Path_1645" class="st8" d="M-3249.6-3264.5h0.9v0.6c-0.2,0.2-0.5,0.3-0.8,0.3c-0.6,0-1.2-0.5-1.2-1.1c0,0,0-0.1,0-0.1l0,0
		c0-0.6,0.5-1.2,1.1-1.2c0,0,0,0,0,0c0.4,0,0.7,0.1,0.9,0.4l0.4-0.5c-0.4-0.3-0.8-0.5-1.3-0.5c-1,0-1.8,0.8-1.8,1.7c0,0,0,0,0,0l0,0
		c0,0.9,0.7,1.7,1.6,1.8c0,0,0.1,0,0.1,0c0.5,0,1-0.2,1.4-0.5v-1.4h-1.5L-3249.6-3264.5L-3249.6-3264.5z"/>
	<g id="Group_413" transform="translate(13.672 46.518)">
		<path id="Path_1646" class="st9" d="M-3259.7-3312.4h-0.7v2.3h0.7c0.6,0,1.2-0.4,1.2-1c0,0,0-0.1,0-0.1l0,0
			C-3258.5-3311.9-3259-3312.4-3259.7-3312.4C-3259.7-3312.4-3259.7-3312.4-3259.7-3312.4z"/>
		<path id="Path_1647" class="st8" d="M-3259.7-3313h-1.3v3.4h1.3c0.9,0.1,1.7-0.7,1.8-1.6c0,0,0-0.1,0-0.1l0,0
			c0-0.9-0.8-1.7-1.7-1.7C-3259.6-3313-3259.7-3313-3259.7-3313z M-3258.5-3311.3c0,0.6-0.5,1.1-1.1,1.2c0,0-0.1,0-0.1,0h-0.7v-2.3
			h0.7c0.6,0,1.2,0.4,1.2,1C-3258.5-3311.4-3258.5-3311.3-3258.5-3311.3z"/>
	</g>
	<g id="Group_414" transform="translate(17.326 46.475)">
		<path id="Path_1648" class="st9" d="M-3259.2-3312.4c-0.6,0-1.2,0.5-1.2,1.2c0,0,0,0,0,0l0,0c0,0.6,0.5,1.2,1.1,1.2
			c0.6,0,1.2-0.5,1.2-1.1c0,0,0-0.1,0-0.1l0,0C-3258-3311.9-3258.5-3312.4-3259.2-3312.4
			C-3259.2-3312.4-3259.2-3312.4-3259.2-3312.4z"/>
		<path id="Path_1649" class="st8" d="M-3259.2-3313c-1,0-1.8,0.8-1.8,1.8c0,0,0,0,0,0l0,0c0,1,0.8,1.8,1.7,1.8c0,0,0,0,0,0
			c1,0,1.8-0.8,1.8-1.8c0,0,0,0,0,0l0,0C-3257.4-3312.2-3258.2-3313-3259.2-3313C-3259.1-3313-3259.2-3313-3259.2-3313z
			 M-3258.1-3311.2c0,0.6-0.5,1.2-1.1,1.2c-0.6,0-1.2-0.5-1.2-1.1c0,0,0-0.1,0-0.1l0,0c0-0.6,0.5-1.2,1.1-1.2c0,0,0,0,0,0
			C-3258.6-3312.4-3258.1-3311.9-3258.1-3311.2C-3258.1-3311.3-3258.1-3311.3-3258.1-3311.2z"/>
	</g>
	<path id="Path_1650" class="st8" d="M-3237.7-3264.8l-1.1-1.6h-0.6v3.4h0.6v-2.4l1.1,1.6h0l1.1-1.6v2.4h0.6v-3.4h-0.6
		L-3237.7-3264.8z"/>
	<g id="Group_415" transform="translate(27.171 46.475)">
		<path id="Path_1651" class="st9" d="M-3259.2-3312.4c-0.6,0-1.2,0.5-1.2,1.2c0,0,0,0,0,0l0,0c0,0.6,0.5,1.2,1.1,1.2
			s1.2-0.5,1.2-1.1c0,0,0-0.1,0-0.1l0,0C-3258-3311.9-3258.5-3312.4-3259.2-3312.4C-3259.1-3312.4-3259.2-3312.4-3259.2-3312.4z"/>
		<path id="Path_1652" class="st8" d="M-3259.2-3313c-1,0-1.8,0.8-1.8,1.8c0,0,0,0,0,0l0,0c0,1,0.8,1.8,1.7,1.8c0,0,0,0,0,0
			c1,0,1.8-0.8,1.8-1.8c0,0,0,0,0,0l0,0c0.1-0.9-0.6-1.7-1.6-1.8C-3259.1-3313-3259.1-3313-3259.2-3313z M-3258-3311.2
			c0,0.6-0.5,1.2-1.1,1.2c-0.6,0-1.2-0.5-1.2-1.1c0,0,0-0.1,0-0.1l0,0c0-0.6,0.5-1.2,1.1-1.2c0,0,0,0,0,0
			C-3258.6-3312.4-3258-3311.9-3258-3311.2C-3258-3311.3-3258-3311.3-3258-3311.2z"/>
	</g>
	<path id="Path_1653" class="st8" d="M-3229.5-3263.1h0.6v-1.4h1.7v-0.6h-1.7v-0.9h1.9v-0.6h-2.5V-3263.1z"/>
	<path id="Path_1654" class="st8" d="M-3223.5-3265.1c-0.6-0.2-0.8-0.3-0.8-0.5l0,0c0-0.2,0.2-0.4,0.6-0.4c0.3,0,0.7,0.1,0.9,0.3
		l0.3-0.5c-0.4-0.3-0.8-0.4-1.2-0.4c-0.6-0.1-1.1,0.3-1.2,0.9c0,0,0,0.1,0,0.1l0,0c0,0.6,0.4,0.9,1.1,1c0.6,0.1,0.8,0.3,0.8,0.5l0,0
		c0,0.3-0.2,0.4-0.6,0.4c-0.4,0-0.8-0.2-1.1-0.4l-0.3,0.4c0.4,0.4,0.9,0.6,1.4,0.6c0.7,0,1.2-0.4,1.2-1l0,0
		C-3222.4-3264.6-3222.8-3264.9-3223.5-3265.1z"/>
	<g id="Group_416" transform="translate(38.951 46.518)">
		<path id="Path_1655" class="st9" d="M-3259.8-3310.9h1.2l-0.6-1.4L-3259.8-3310.9z"/>
		<path id="Path_1656" class="st8" d="M-3259.5-3313l-1.5,3.4h0.6l0.3-0.8h1.6l0.3,0.8h0.6l-1.5-3.4H-3259.5z M-3259.8-3310.9
			l0.6-1.4l0.6,1.4H-3259.8z"/>
	</g>
	<path id="Path_1657" class="st8" d="M-3215.8-3264.5c0,0.6-0.3,0.9-0.9,0.9c-0.5,0-0.9-0.3-0.9-1v-1.9h-0.6v2
		c-0.1,0.7,0.4,1.4,1.2,1.5c0.1,0,0.2,0,0.3,0c0.7,0.1,1.4-0.5,1.5-1.2c0-0.1,0-0.2,0-0.3v-1.9h-0.6L-3215.8-3264.5z"/>
	<g id="Group_417" transform="translate(46.647 46.518)">
		<path id="Path_1658" class="st9" d="M-3259.7-3312.4h-0.7v2.3h0.7c0.6,0,1.2-0.4,1.2-1c0,0,0-0.1,0-0.1l0,0
			C-3258.5-3311.9-3259-3312.4-3259.7-3312.4C-3259.7-3312.4-3259.7-3312.4-3259.7-3312.4z"/>
		<path id="Path_1659" class="st8" d="M-3259.7-3313h-1.3v3.4h1.3c0.9,0.1,1.7-0.7,1.8-1.6c0,0,0-0.1,0-0.1l0,0
			c0-0.9-0.8-1.7-1.7-1.7C-3259.6-3313-3259.7-3313-3259.7-3313z M-3258.5-3311.3c0,0.6-0.5,1.1-1.1,1.2c0,0-0.1,0-0.1,0h-0.7v-2.3
			h0.7c0.6-0.1,1.1,0.4,1.2,1C-3258.5-3311.4-3258.5-3311.3-3258.5-3311.3z"/>
	</g>
	<rect id="Rectangle_580" x="-3210.5" y="-3266.5" class="st8" width="0.6" height="3.4"/>
	<g id="Group_418" transform="translate(53.181 46.518)">
		<path id="Path_1660" class="st9" d="M-3259.8-3310.9h1.2l-0.6-1.4L-3259.8-3310.9z"/>
		<path id="Path_1661" class="st8" d="M-3259.5-3313l-1.5,3.4h0.6l0.3-0.8h1.6l0.3,0.8h0.6l-1.5-3.4H-3259.5z M-3259.8-3310.9
			l0.6-1.4l0.6,1.4H-3259.8z"/>
	</g>
	<g id="Group_419" transform="translate(57.309 46.518)">
		<path id="Path_1662" class="st9" d="M-3258.8-3311.9L-3258.8-3311.9c0-0.4-0.3-0.6-0.7-0.6h-0.9v1.2h0.9
			C-3259.1-3311.3-3258.8-3311.5-3258.8-3311.9z"/>
		<path id="Path_1663" class="st8" d="M-3258.2-3311.9L-3258.2-3311.9c0-0.3-0.1-0.5-0.3-0.7c-0.3-0.2-0.6-0.4-1-0.3h-1.5v3.4h0.6
			v-1.2h0.7l0.9,1.2h0.7l-0.9-1.3C-3258.5-3311-3258.2-3311.4-3258.2-3311.9z M-3259.5-3311.3h-0.9v-1.2h0.9c0.4,0,0.7,0.2,0.7,0.6
			l0,0C-3258.8-3311.5-3259.1-3311.3-3259.5-3311.3L-3259.5-3311.3z"/>
	</g>
	<g id="Group_420" transform="translate(60.662 46.518)">
		<path id="Path_1664" class="st9" d="M-3259.8-3310.9h1.2l-0.6-1.4L-3259.8-3310.9z"/>
		<path id="Path_1665" class="st8" d="M-3259.5-3313l-1.5,3.4h0.6l0.3-0.8h1.6l0.3,0.8h0.6l-1.5-3.4H-3259.5z M-3259.8-3310.9
			l0.6-1.4l0.6,1.4H-3259.8z"/>
	</g>
	<g id="Group_421" transform="translate(64.746 46.518)">
		<path id="Path_1666" class="st9" d="M-3259.4-3311.1h-0.9v0.9h1c0.4,0,0.6-0.2,0.6-0.5l0,0
			C-3258.7-3310.9-3258.9-3311.1-3259.4-3311.1z"/>
		<path id="Path_1667" class="st9" d="M-3258.9-3312L-3258.9-3312c0-0.3-0.2-0.4-0.6-0.4h-0.9v0.9h0.8
			C-3259.2-3311.5-3258.9-3311.7-3258.9-3312z"/>
		<path id="Path_1668" class="st8" d="M-3258.8-3311.4c0.3-0.1,0.5-0.4,0.5-0.8l0,0c0-0.2-0.1-0.4-0.2-0.6c-0.2-0.2-0.6-0.3-0.9-0.3
			h-1.6v3.4h1.6c0.8,0,1.2-0.3,1.2-0.9l0,0C-3258.1-3311-3258.4-3311.2-3258.8-3311.4z M-3260.4-3312.5h0.9c0.4,0,0.6,0.2,0.6,0.4
			l0,0c0,0.3-0.3,0.5-0.6,0.5h-0.8L-3260.4-3312.5z M-3258.7-3310.6c0,0.3-0.3,0.5-0.6,0.5h-1v-0.9h0.9
			C-3258.9-3311.1-3258.7-3310.9-3258.7-3310.6z"/>
	</g>
	<rect id="Rectangle_581" x="-3192.6" y="-3266.5" class="st8" width="0.6" height="3.4"/>
	<g id="Group_422" transform="translate(69.561 46.518)">
		<path id="Path_1669" class="st9" d="M-3259.8-3310.9h1.2l-0.6-1.4L-3259.8-3310.9z"/>
		<path id="Path_1670" class="st8" d="M-3259.5-3313l-1.5,3.4h0.6l0.3-0.8h1.6l0.3,0.8h0.6l-1.5-3.4H-3259.5z M-3259.8-3310.9
			l0.6-1.4l0.6,1.4H-3259.8z"/>
	</g>
	<path id="Path_1160_2_" class="st8" d="M-3207.6-3284.6L-3207.6-3284.6c0,3.7-2.6,6.3-7,6.3c-2.9,0.1-5.6-1.1-7.5-3.3l2.9-2.8
		c1.1,1.5,2.8,2.3,4.6,2.3c1.3,0.2,2.5-0.7,2.7-2c0,0,0,0,0,0v-0.3c0-1.5-1.4-2.4-3.8-2.4h-1.8l-0.7-2.6l6.2-6.2l-2.4,1.5h-6.6v-3.6
		h13v3.2l-4.9,4.6C-3210.1-3289.5-3207.6-3288.2-3207.6-3284.6 M-3219.6-3306.5c0-1.6,1.2-3,2.8-3.2h2.1l-0.6,0.2v4.7
		c0,0.3,0,0.6,0.1,0.9c0,0.1,0.1,0.3,0.2,0.4h-1.6C-3218.3-3303.5-3219.6-3304.9-3219.6-3306.5L-3219.6-3306.5L-3219.6-3306.5z
		 M-3216.6-3302.5h1.8v-0.6l0.1,0.1c0.2,0.2,0.4,0.3,0.6,0.5c0.3,0.1,0.5,0.1,0.8,0.2h15.3v-8.1h-0.9v7.1h-14.6
		c-0.1,0-0.3,0-0.4-0.1l-0.2-0.2c-0.1-0.2-0.1-0.2-0.2-0.4v-6.4h-2.3c-2.1,0-3.9,1.7-4,3.8v0.2l0,0c0,2.1,1.7,3.9,3.8,4
		C-3216.7-3302.6-3216.7-3302.6-3216.6-3302.5 M-3192.1-3311.3h-1.8v-0.7c0-0.3,0.1-0.5,0.2-0.8c0.2-0.1,0.5-0.2,0.8-0.2h0.6v0.6
		h-0.6c-0.1,0-0.3,0.1-0.3,0.2v0.3h1.1L-3192.1-3311.3z M-3189.9-3302.4c-0.2,0-0.5,0-0.7-0.1l0.2-0.8l0.2,0.1h0.2
		c0.1,0,0.3,0,0.4-0.1l0.2-0.2c0.1-0.2,0.1-0.2,0.2-0.4v-6.6h0.9v5.8c0,0.3,0,0.6-0.1,0.9l-0.2,0.7c-0.2,0.2-0.4,0.3-0.6,0.5
		C-3189.4-3302.5-3189.7-3302.5-3189.9-3302.4 M-3214.3-3311.3h-0.9v-0.8h0.9V-3311.3z M-3195.8-3308.4c0.1-0.2,0.3-0.5,0.6-0.6
		c0.2-0.2,0.4-0.3,0.7-0.4c0.3-0.1,0.6-0.1,0.9-0.2h1.4l-0.5,0.2v3.8h-0.9c-0.3,0-0.6-0.1-0.9-0.2c-0.3-0.1-0.5-0.2-0.7-0.4
		c-0.2-0.1-0.4-0.4-0.5-0.6c-0.1-0.3-0.2-0.6-0.2-0.9C-3196-3307.8-3195.9-3308.1-3195.8-3308.4 M-3195.8-3305.4
		c0.3,0.2,0.7,0.4,1.1,0.5c0.4,0.1,0.9,0.1,1.3,0.2h0.2l0.3-0.6v0.9c0,0.4-0.1,0.7-0.4,0.9c-0.3,0.2-0.7,0.3-1.1,0.3
		c-0.2,0-0.5,0-0.7-0.1l-0.7-0.2l-0.2,0.8c0.3,0.1,0.6,0.2,0.9,0.3c0.3,0,0.5,0.1,0.8,0.1c0.6,0.1,1.3-0.2,1.8-0.6
		c0.4-0.4,0.6-1,0.6-1.5v-5.9h-1.4c-0.5,0-0.9,0.1-1.4,0.2c-0.4,0.2-0.8,0.4-1.2,0.6c-0.3,0.2-0.6,0.6-0.7,0.9
		c-0.2,0.4-0.2,0.8-0.2,1.2c0,0.4,0.1,0.9,0.3,1.2C-3196.4-3305.9-3196.2-3305.6-3195.8-3305.4 M-3216-3311.3h-0.9v-0.8h0.9V-3311.3
		z M-3224.7-3310.5h0.9v7.9h-0.7l-5.7-7.1l0.5,1.2v5.9h-0.9v-7.9h0.9l5.3,6.8l-0.3-0.9L-3224.7-3310.5z M-3257.6-3302.5l-3.4-8h1
		l0.5,1.2l2.3,5.6l0.2,0.6l-0.1-0.9l2.7-6.5h0.9l-3.4,8H-3257.6z M-3242.6-3310.5h0.9v7.9h-0.9V-3310.5z M-3233-3306.5
		c0.1,1.7-1.2,3.1-2.9,3.2h-0.2c-1.7,0-3.1-1.5-3.1-3.2v-0.1l0,0c-0.1-1.7,1.2-3.1,2.9-3.2h0.2
		C-3234.3-3309.7-3233-3308.3-3233-3306.5L-3233-3306.5z M-3236.1-3310.6c-2.2,0-4,1.8-4.1,4v0.2l0,0c-0.1,2.2,1.6,4.1,3.9,4.3
		s4.1-1.6,4.3-3.9v-0.4l0,0c0.1-2.2-1.6-4-3.8-4.1c0,0,0,0-0.1,0L-3236.1-3310.6 M-3244-3304.7L-3244-3304.7c0,1.4-1.2,2.2-2.7,2.2
		c-1.2,0.1-2.4-0.4-3.2-1.2l0.6-0.7c0.7,0.7,1.7,1.1,2.7,1.1c1.1,0,1.8-0.6,1.8-1.3l0,0c0-0.7-0.4-1.2-2.1-1.5
		c-1.8-0.4-2.6-1-2.6-2.3l0,0c0.1-1.3,1.2-2.3,2.5-2.2h0.1c1,0,2,0.3,2.8,1l-0.6,0.7c-0.6-0.6-1.5-0.9-2.3-0.9c-1,0-1.7,0.6-1.7,1.3
		l0,0c0,0.8,0.4,1.2,2.2,1.5C-3244.8-3306.5-3244-3305.9-3244-3304.7 M-3251.4-3302.6h-0.9v-7.9h0.9L-3251.4-3302.6z
		 M-3199.4-3301.7h0.9v0.9h-0.9V-3301.7z M-3201-3301.7h0.9v0.9h-0.9V-3301.7z M-3253.9-3282.2h7.4v3.6h-14.3v-3.3l6.4-5.2
		c2.4-1.9,3.3-3,3.3-4.6c0.1-1.2-0.8-2.3-2-2.4c0,0,0,0-0.1,0h-0.5c-1.5,0-2.5,0.9-4,2.5l-2.9-2.3c2-2.5,3.7-3.9,7.2-3.9
		c4,0,6.6,2.3,6.6,5.9v0.1c0,3.2-1.6,4.8-5,7.4l-4.3,3.2l-0.9,0.6L-3253.9-3282.2z M-3190.5-3288.2c0.2,3.1-2.2,5.8-5.3,5.9
		c0,0,0,0,0,0h-0.3c-3.2,0-5.8-2.6-5.8-5.8v-0.3c-0.2-3.1,2.2-5.8,5.3-5.9c0,0,0,0,0,0h0.3c3.2,0,5.8,2.6,5.8,5.8V-3288.2z
		 M-3196.3-3298.1c-5.5-0.2-10.1,4.1-10.3,9.6v0.4c0,5.4,4.3,9.8,9.8,9.9h0.4c5.5,0.2,10.1-4.1,10.3-9.6v-0.4c0-5.4-4.3-9.8-9.8-9.9
		L-3196.3-3298.1"/>
</g>
</svg>
