<svg xmlns="http://www.w3.org/2000/svg" viewBox="0 0 431.45 184.94"><defs><style>.cls-1{fill:#5cb8d9;}.cls-2{fill:#6c9;}.cls-3{fill:#36c;}.cls-4{fill:#2b9182;}.cls-5{fill:#2987b5;}.cls-6{fill:#175478;}.cls-7{fill:#174dab;}.cls-8{fill:#0d2ea1;}.cls-9{fill:#30a35e;}.cls-10{fill:#3d3b3d;}</style></defs><title>meras_logo</title><g id="Layer_2" data-name="Layer 2"><g id="Layer_1-2" data-name="Layer 1"><polygon class="cls-1" points="121.31 96.17 128.47 90.93 108.63 65.59 101.05 73.91 121.31 96.17"/><polygon class="cls-2" points="153.33 131.35 158.67 129.48 136.93 101.73 130.13 105.86 153.33 131.35"/><polygon class="cls-1" points="48.77 131.35 0 184.94 65.33 137.14 48.77 131.35"/><polygon class="cls-3" points="71.97 105.86 65.17 101.73 43.43 129.48 48.77 131.35 71.97 105.86"/><polygon class="cls-1" points="101.05 73.91 93.47 65.59 73.62 90.93 80.79 96.17 101.05 73.91"/><polygon class="cls-4" points="110.41 117.85 136.77 137.14 153.32 131.35 130.13 105.86 110.41 117.85"/><polygon class="cls-5" points="121.31 96.17 101.05 73.91 80.79 96.17 101.05 111 121.31 96.17"/><polygon class="cls-1" points="110.41 117.85 130.13 105.86 121.31 96.17 101.05 111 110.41 117.85"/><polygon class="cls-1" points="101.05 111 80.79 96.17 71.97 105.86 91.69 117.85 101.05 111"/><polygon class="cls-2" points="101.05 123.53 128.3 140.09 136.77 137.14 110.41 117.85 101.05 123.53"/><polygon class="cls-3" points="73.79 140.09 101.05 149.62 128.3 140.09 101.05 123.53 73.79 140.09"/><polygon class="cls-3" points="71.97 105.86 48.77 131.35 65.33 137.14 91.69 117.85 71.97 105.86"/><polygon class="cls-3" points="91.69 117.85 65.33 137.14 73.79 140.09 101.05 123.53 91.69 117.85"/><polygon class="cls-3" points="101.05 55.91 83.11 33.01 75.87 46.25 93.47 65.59 101.05 55.91"/><polygon points="119.11 32.86 101.17 0 119.09 32.88 119.11 32.86"/><polygon class="cls-4" points="128.47 90.93 144.43 79.26 126.34 46.12 108.63 65.59 128.47 90.93"/><polygon class="cls-2" points="136.93 101.73 151.77 92.71 144.43 79.26 128.47 90.93 136.93 101.73"/><polygon class="cls-6" points="119.09 32.88 101.17 0 83.11 33.01 101.05 55.91 119.09 32.88"/><polygon class="cls-7" points="93.47 65.59 75.87 46.25 57.77 79.34 73.62 90.93 93.47 65.59"/><polygon class="cls-8" points="65.17 101.73 50.42 92.77 32.44 125.64 43.43 129.48 65.17 101.73"/><polygon class="cls-3" points="43.43 129.48 32.44 125.64 0 184.94 43.43 129.48"/><polygon class="cls-3" points="73.62 90.93 57.77 79.34 50.42 92.77 65.17 101.73 73.62 90.93"/><polygon class="cls-2" points="119.11 32.92 119.09 32.88 101.05 55.91 108.63 65.59 126.34 46.12 119.11 32.86 119.09 32.88 119.11 32.92"/><polygon class="cls-3" points="101.05 149.62 202.1 184.94 128.3 140.09 101.05 149.62"/><polygon class="cls-9" points="158.67 129.48 169.73 125.62 151.77 92.71 136.93 101.73 158.67 129.48"/><polygon class="cls-2" points="73.79 140.09 0 184.94 101.05 149.62 73.79 140.09"/><polygon class="cls-2" points="202.1 184.94 169.73 125.62 158.67 129.48 202.1 184.94"/><polygon class="cls-1" points="136.77 137.14 202.1 184.94 153.33 131.35 136.77 137.14"/><polygon class="cls-10" points="429.74 106 429.74 102 411.82 104.56 411.82 108.56 429.74 106"/><path class="cls-10" d="M343.37,104.75a9,9,0,0,0,2.73-6.58V93.78h85.35V72.09a9.32,9.32,0,0,0-9.31-9.31H408.23a9.32,9.32,0,0,0-9.31,9.31V84.94H346.1V62.37h-8.83v35.8c0,.27-.16.4-.48.4H319.93v8.91h16.86A9,9,0,0,0,343.37,104.75Zm64.39-32.66c0-.27.16-.4.47-.4h13.91c.31,0,.47.13.47.4V84.47a.41.41,0,0,1-.47.47H408.23a.41.41,0,0,1-.47-.47Z"/><path class="cls-10" d="M229.58,107h16.61a9.34,9.34,0,0,0,9.38-9.38V91.72c.29,0,.57,0,.86,0h11.71a8.92,8.92,0,0,0,4.35-1.06,9,9,0,0,0,4.36,1.06h11.7a9.32,9.32,0,0,0,9.31-9.31V63H289V82.45a.42.42,0,0,1-.48.47H277.43c0-.16,0-.31,0-.47V63h-8.84v.14h-1.07V82.45c0,.16,0,.31,0,.47H256.43a.42.42,0,0,1-.47-.47V63.16h-.39v-.24h-8.9V97.59a.42.42,0,0,1-.48.47H229.58a.41.41,0,0,1-.47-.47V62.92H220.2V97.59a9.34,9.34,0,0,0,9.38,9.38Z"/><rect class="cls-10" x="308.87" y="38.78" width="8.91" height="52.98"/><path class="cls-10" d="M380.83,125.4H353.12v8h27.71a.38.38,0,0,1,.43.43v5.28H353.12v13.39A8.5,8.5,0,0,0,361.6,161h27.7V133.88a8.48,8.48,0,0,0-8.47-8.48Zm.43,27.58H361.6a.38.38,0,0,1-.43-.43v-5.28h20.09Z"/><path class="cls-10" d="M321.08,127.68a8.14,8.14,0,0,0-2.49,6v27.15h8.05V133.67a.38.38,0,0,1,.43-.43h19.78v-8.05H327.07A8.17,8.17,0,0,0,321.08,127.68Z"/><polygon class="cls-10" points="244.71 136.56 228.62 117.39 219.77 117.39 219.77 161.63 227.88 161.63 227.88 129.19 244.71 149.16 261.48 129.19 261.48 161.63 269.65 161.63 269.65 117.39 260.75 117.39 244.71 136.56"/><path class="cls-10" d="M431.45,135.32V133.8a8.35,8.35,0,0,0-8.4-8.4H404a8.42,8.42,0,0,0-8.4,8.4v4.86a8.42,8.42,0,0,0,8.4,8.4h19.05c.28,0,.43.12.43.37v4.87a.38.38,0,0,1-.43.42H404a.37.37,0,0,1-.42-.42v-1.53h-8v1.53a8.42,8.42,0,0,0,8.4,8.39h19.05a8.35,8.35,0,0,0,8.4-8.39v-4.87a8.35,8.35,0,0,0-8.4-8.4H404c-.28,0-.42-.12-.42-.37V133.8a.37.37,0,0,1,.42-.43h19.05a.38.38,0,0,1,.43.43v1.52Z"/><path class="cls-10" d="M303.51,125.19h-27.7v27.15a8.5,8.5,0,0,0,8.47,8.48H312v-8H284.28a.38.38,0,0,1-.43-.43v-5.28H312V133.67a8.5,8.5,0,0,0-8.48-8.48Zm.43,13.76H283.85v-5.71h19.66a.38.38,0,0,1,.43.43Z"/></g></g></svg>